<?xml version="1.0" encoding="utf-8"?>
<!-- Generator: Adobe Illustrator 23.0.1, SVG Export Plug-In . SVG Version: 6.00 Build 0)  -->
<svg version="1.1" id="Layer_1" xmlns="http://www.w3.org/2000/svg" xmlns:xlink="http://www.w3.org/1999/xlink" x="0px" y="0px"
	 viewBox="0 0 792 235.3" style="enable-background:new 0 0 792 235.3;" xml:space="preserve">
<style type="text/css">
	.st0{fill:#FFFFFF;}
	.st1{fill:#ED1C24;}
	.st2{fill:#00A651;}
</style>
<g id="Layer_1_copy">
	<g>
		<g>
			<polygon class="st0" points="206.1,204.9 29.8,204.9 29.8,28.6 25.7,24.6 21.7,20.5 21.7,213 214.2,213 			"/>
			<g>
				<polygon class="st1" points="62.8,46.8 48,46.8 48,61.7 93.5,107.2 108.4,92.4 				"/>
				<polygon class="st1" points="127.5,141.2 173.1,186.8 187.9,186.7 187.9,171.9 142.3,126.3 				"/>
				<polygon class="st2" points="187.9,61.7 187.9,46.8 173.1,46.8 127.5,92.4 142.3,107.2 				"/>
				<polygon class="st2" points="48,171.9 48,186.7 62.8,186.8 108.4,141.2 93.5,126.3 				"/>
			</g>
		</g>
		<g>
			<path class="st0" d="M303.1,84.9v11.8h-33.8v13.7h31v10.9h-31V137h34.5v12h-48.6V85L303.1,84.9L303.1,84.9z"/>
			<path class="st0" d="M329.6,110.9c-2,0-3.7,0.5-5.1,1.4s-2.5,2.1-3.4,3.6s-1.5,3.1-1.8,4.8c-0.4,1.8-0.5,3.5-0.5,5.2
				s0.2,3.4,0.5,5.1c0.4,1.7,0.9,3.3,1.7,4.7c0.8,1.4,1.9,2.6,3.3,3.5s3,1.3,5,1.3c3,0,5.4-0.9,7-2.6c1.6-1.7,2.7-4,3.1-6.9h12.3
				c-0.8,6.2-3.2,10.9-7.2,14.1c-3.9,3.2-9,4.8-15.2,4.8c-3.5,0-6.7-0.6-9.6-1.7c-2.9-1.2-5.4-2.8-7.4-4.9c-2-2.1-3.6-4.6-4.8-7.5
				c-1.1-2.9-1.7-6.1-1.7-9.6c0-3.6,0.5-6.9,1.6-10c1-3.1,2.6-5.7,4.6-8c2-2.2,4.5-4,7.4-5.2c2.9-1.3,6.3-1.9,10-1.9
				c2.7,0,5.4,0.4,7.9,1.1s4.8,1.8,6.8,3.3s3.6,3.3,4.9,5.5s2,4.8,2.2,7.8h-12.5C338.2,113.6,335.1,110.9,329.6,110.9z"/>
			<path class="st0" d="M354.7,115.7c1.1-3,2.7-5.6,4.8-7.7c2.1-2.1,4.6-3.8,7.5-4.9c2.9-1.2,6.2-1.7,9.9-1.7c3.6,0,7,0.6,9.9,1.7
				c3,1.2,5.5,2.8,7.6,4.9s3.7,4.7,4.8,7.7c1.1,3,1.7,6.4,1.7,10.1c0,3.7-0.6,7.1-1.7,10c-1.1,3-2.8,5.5-4.8,7.7
				c-2.1,2.1-4.6,3.8-7.6,4.9c-3,1.1-6.3,1.7-9.9,1.7s-6.9-0.6-9.9-1.7c-2.9-1.1-5.4-2.8-7.5-4.9c-2.1-2.1-3.7-4.7-4.8-7.7
				c-1.1-3-1.7-6.3-1.7-10C353,122.1,353.6,118.8,354.7,115.7z M366.3,131.3c0.4,1.8,1,3.3,1.8,4.8c0.9,1.4,2,2.5,3.5,3.4
				c1.4,0.8,3.2,1.3,5.4,1.3c2.2,0,4-0.4,5.4-1.3c1.5-0.8,2.6-2,3.5-3.4s1.5-3,1.8-4.8c0.4-1.8,0.5-3.6,0.5-5.4s-0.2-3.7-0.5-5.5
				c-0.4-1.8-1-3.4-1.8-4.8c-0.9-1.4-2-2.5-3.5-3.4s-3.3-1.3-5.4-1.3c-2.2,0-3.9,0.4-5.4,1.3c-1.4,0.9-2.6,2-3.5,3.4s-1.5,3-1.8,4.8
				c-0.4,1.8-0.5,3.6-0.5,5.5S366,129.5,366.3,131.3z"/>
			<path class="st0" d="M416.9,102.6v6.5h0.3c1.6-2.7,3.7-4.6,6.3-5.9c2.6-1.2,5.2-1.8,7.9-1.8c3.4,0,6.2,0.5,8.4,1.4
				c2.2,0.9,3.9,2.2,5.2,3.9c1.3,1.6,2.1,3.6,2.6,6s0.8,5,0.8,7.8V149h-12.7v-26.2c0-3.8-0.6-6.7-1.8-8.6c-1.2-1.9-3.3-2.8-6.4-2.8
				c-3.5,0-6,1-7.5,3.1c-1.6,2.1-2.3,5.5-2.3,10.2V149H405v-46.4H416.9z"/>
			<path class="st0" d="M483.7,84.9c4,0,7.4,0.6,10.2,1.7c2.8,1.2,5.1,2.7,6.9,4.6s3,4.1,3.9,6.5c0.8,2.5,1.2,5,1.2,7.6
				s-0.4,5.1-1.2,7.6c-0.8,2.5-2.1,4.7-3.9,6.6s-4.1,3.5-6.9,4.6c-2.8,1.2-6.2,1.7-10.2,1.7h-14.8v23h-14.1v-64h28.9V84.9z
				 M479.8,115.1c1.6,0,3.2-0.1,4.7-0.4c1.5-0.2,2.8-0.7,3.9-1.4c1.1-0.7,2-1.7,2.7-2.9c0.7-1.3,1-2.9,1-4.9s-0.3-3.7-1-4.9
				c-0.7-1.3-1.6-2.2-2.7-2.9c-1.1-0.7-2.5-1.2-3.9-1.4c-1.5-0.2-3-0.4-4.7-0.4h-10.9v19.2C468.9,115.1,479.8,115.1,479.8,115.1z"/>
			<path class="st0" d="M520.9,102.6v8.6h0.2c0.6-1.4,1.4-2.8,2.4-4s2.2-2.3,3.5-3.1c1.3-0.9,2.7-1.5,4.2-2s3-0.7,4.7-0.7
				c0.8,0,1.8,0.1,2.8,0.4v11.8c-0.6-0.1-1.3-0.2-2.2-0.3c-0.8-0.1-1.6-0.1-2.4-0.1c-2.3,0-4.3,0.4-5.9,1.2
				c-1.6,0.8-2.9,1.8-3.9,3.2c-1,1.3-1.7,2.9-2.1,4.7c-0.4,1.8-0.6,3.7-0.6,5.8V149h-12.7v-46.4H520.9z"/>
			<path class="st0" d="M538.7,116.9c0.2-3,0.9-5.5,2.2-7.4c1.3-2,3-3.6,5-4.8c2-1.2,4.3-2,6.9-2.6c2.5-0.5,5.1-0.8,7.7-0.8
				c2.3,0,4.7,0.2,7.1,0.5c2.4,0.3,4.6,1,6.5,1.9c2,1,3.6,2.3,4.8,4c1.3,1.7,1.9,4,1.9,6.8v24.1c0,2.1,0.1,4.1,0.4,6
				c0.2,1.9,0.7,3.3,1.3,4.3h-12.9c-0.2-0.7-0.4-1.4-0.6-2.2c-0.2-0.7-0.3-1.5-0.3-2.3c-2,2.1-4.4,3.6-7.2,4.4
				c-2.8,0.8-5.6,1.3-8.4,1.3c-2.2,0-4.3-0.3-6.2-0.8s-3.6-1.4-5-2.5s-2.6-2.6-3.4-4.3c-0.8-1.7-1.2-3.8-1.2-6.2
				c0-2.6,0.5-4.8,1.4-6.5s2.1-3.1,3.6-4.1s3.1-1.8,5-2.3s3.8-0.9,5.7-1.2c1.9-0.3,3.8-0.5,5.6-0.7c1.9-0.2,3.5-0.4,4.9-0.8
				s2.6-0.9,3.4-1.6c0.8-0.7,1.2-1.7,1.2-3c0-1.4-0.2-2.5-0.7-3.3c-0.4-0.8-1-1.4-1.8-1.9c-0.7-0.4-1.6-0.7-2.6-0.9
				c-1-0.1-2-0.2-3.2-0.2c-2.5,0-4.5,0.5-5.9,1.6s-2.3,2.9-2.5,5.4L538.7,116.9L538.7,116.9z M568.1,126.3c-0.5,0.5-1.2,0.9-2,1.1
				c-0.8,0.3-1.7,0.5-2.6,0.7c-0.9,0.2-1.9,0.3-2.9,0.4c-1,0.1-2,0.3-3,0.4c-1,0.2-1.9,0.4-2.8,0.7c-0.9,0.3-1.7,0.7-2.4,1.2
				s-1.2,1.2-1.7,1.9c-0.4,0.8-0.6,1.8-0.6,3c0,1.1,0.2,2.1,0.6,2.9c0.4,0.8,1,1.4,1.7,1.8c0.7,0.4,1.6,0.8,2.5,0.9
				c1,0.2,1.9,0.3,3,0.3c2.5,0,4.5-0.4,5.8-1.3c1.4-0.8,2.4-1.8,3-3c0.7-1.2,1.1-2.3,1.2-3.5c0.1-1.2,0.2-2.2,0.2-2.9V126.3z"/>
			<path class="st0" d="M608.4,110.9c-2,0-3.7,0.5-5.1,1.4c-1.4,0.9-2.5,2.1-3.4,3.6s-1.5,3.1-1.8,4.8c-0.4,1.8-0.5,3.5-0.5,5.2
				s0.2,3.4,0.5,5.1c0.4,1.7,0.9,3.3,1.7,4.7s1.9,2.6,3.3,3.5c1.4,0.9,3,1.3,5,1.3c3,0,5.4-0.9,7-2.6c1.6-1.7,2.7-4,3.1-6.9h12.3
				c-0.8,6.2-3.2,10.9-7.2,14.1s-9,4.8-15.2,4.8c-3.5,0-6.7-0.6-9.6-1.7c-2.9-1.2-5.4-2.8-7.4-4.9c-2-2.1-3.6-4.6-4.8-7.5
				c-1.1-2.9-1.7-6.1-1.7-9.6c0-3.6,0.5-6.9,1.6-10c1-3.1,2.6-5.7,4.6-8c2-2.2,4.5-4,7.4-5.2c2.9-1.3,6.3-1.9,10-1.9
				c2.7,0,5.4,0.4,7.9,1.1s4.8,1.8,6.8,3.3s3.6,3.3,4.9,5.5c1.3,2.2,2,4.8,2.2,7.8h-12.5C616.9,113.6,613.8,110.9,608.4,110.9z"/>
			<path class="st0" d="M658.7,102.6v8.5h-9.3v23c0,2.2,0.4,3.6,1.1,4.3c0.7,0.7,2.2,1.1,4.3,1.1c0.7,0,1.4,0,2.1-0.1
				c0.7-0.1,1.3-0.1,1.9-0.3v9.9c-1.1,0.2-2.3,0.3-3.6,0.4c-1.3,0.1-2.6,0.1-3.9,0.1c-2,0-3.8-0.1-5.6-0.4c-1.8-0.3-3.3-0.8-4.7-1.6
				c-1.3-0.8-2.4-1.9-3.2-3.3c-0.8-1.4-1.2-3.3-1.2-5.6v-27.4h-7.7v-8.5h7.7v-14h12.7v13.9H658.7z"/>
			<path class="st0" d="M660.6,95.4V84.9h12.7v10.5H660.6z M673.4,102.6V149h-12.7v-46.4H673.4z"/>
			<path class="st0" d="M701.1,110.9c-2,0-3.7,0.5-5.1,1.4c-1.4,0.9-2.5,2.1-3.4,3.6s-1.5,3.1-1.8,4.8c-0.4,1.8-0.5,3.5-0.5,5.2
				s0.2,3.4,0.5,5.1c0.4,1.7,0.9,3.3,1.7,4.7s1.9,2.6,3.3,3.5c1.4,0.9,3,1.3,5,1.3c3,0,5.4-0.9,7-2.6c1.6-1.7,2.7-4,3.1-6.9h12.3
				c-0.8,6.2-3.2,10.9-7.2,14.1c-3.9,3.2-9,4.8-15.2,4.8c-3.5,0-6.7-0.6-9.6-1.7c-2.9-1.2-5.4-2.8-7.4-4.9c-2-2.1-3.6-4.6-4.8-7.5
				c-1.1-2.9-1.7-6.1-1.7-9.6c0-3.6,0.5-6.9,1.6-10c1-3.1,2.6-5.7,4.6-8c2-2.2,4.5-4,7.4-5.2c2.9-1.3,6.3-1.9,10-1.9
				c2.7,0,5.4,0.4,7.9,1.1s4.8,1.8,6.8,3.3s3.6,3.3,4.9,5.5c1.3,2.2,2,4.8,2.2,7.8h-12.5C709.7,113.6,706.5,110.9,701.1,110.9z"/>
			<path class="st0" d="M739.5,137.8c1.9,1.9,4.7,2.8,8.3,2.8c2.6,0,4.8-0.6,6.6-1.9c1.9-1.3,3-2.6,3.4-4.1H769
				c-1.8,5.6-4.5,9.5-8.3,11.9c-3.7,2.4-8.2,3.6-13.5,3.6c-3.6,0-6.9-0.6-9.9-1.7c-2.9-1.2-5.4-2.8-7.4-5s-3.6-4.7-4.7-7.7
				c-1.1-3-1.7-6.3-1.7-9.9c0-3.5,0.6-6.7,1.7-9.7c1.1-3,2.7-5.6,4.8-7.8c2.1-2.2,4.6-3.9,7.5-5.2c2.9-1.3,6.1-1.9,9.6-1.9
				c3.9,0,7.4,0.8,10.3,2.3c2.9,1.5,5.3,3.6,7.2,6.1c1.9,2.6,3.2,5.5,4.1,8.8c0.8,3.3,1.1,6.7,0.9,10.3h-33.4
				C736.6,133,737.6,136,739.5,137.8z M753.9,113.5c-1.5-1.7-3.8-2.5-6.9-2.5c-2,0-3.7,0.3-5.1,1c-1.3,0.7-2.4,1.5-3.2,2.6
				c-0.8,1-1.4,2.1-1.7,3.2s-0.5,2.2-0.6,3h20.7C756.5,117.6,755.5,115.1,753.9,113.5z"/>
		</g>
	</g>
</g>
</svg>
