<svg id="Layer_1" data-name="Layer 1" xmlns="http://www.w3.org/2000/svg" viewBox="0 0 699.86 138.56"><defs><style>.cls-1{fill:#74aadb;}.cls-2{fill:#fff;}</style></defs><title>logo-econpractice</title><path class="cls-1" d="M209.81,134.35V58.49h50.47V64.6H217V92h39.09v6.11H217v30.13h44.36v6.11Z" transform="translate(-38.32 -30.31)"/><path class="cls-1" d="M299.49,96.95c-2.21-8.11-7.8-13-16.23-13-13,0-18.33,11.8-18.33,23.18s5.27,23,18.33,23c9.38,0,15.28-5.58,16.75-14.65h6.74c-2.21,12.12-9.8,20.33-23.5,20.33-17.38,0-25.08-12.54-25.08-28.66,0-15.17,8.75-28.87,25.08-28.87,12.54,0,20.76,6,22.65,18.65Z" transform="translate(-38.32 -30.31)"/><path class="cls-1" d="M306.44,107.06c0-15.91,8.43-28.76,25.29-28.76C348.79,78.3,357,91,357,107.06c0,17.28-10,28.76-25.29,28.76C317.82,135.61,306.44,126.13,306.44,107.06ZM331.72,84c-13.28,0-18.54,11.27-18.54,23.07,0,13.59,6.43,23.07,18.54,23.07,13.28,0,18.54-11.38,18.54-23.07C350.16,94.21,345.1,84,331.72,84Z" transform="translate(-38.32 -30.31)"/><path class="cls-1" d="M365.87,134.35h-6.32V79.77h6.32v7.59c5.06-5.37,10-9.06,17.6-9.06,6.64,0,12.75,2.11,16.65,7.8,2.63,3.9,2.74,8,2.74,12.54v35.72h-6.32V98.74c0-9.8-4-14.75-14.12-14.75a15.93,15.93,0,0,0-15.17,10.64c-1.26,3.48-1.37,6.53-1.37,10.33Z" transform="translate(-38.32 -30.31)"/><path class="cls-2" d="M422.15,134.35h-15.8V58.7H440.9c14.65,0,23.5,9.38,23.5,24.23,0,6.85-3.79,24.13-24.13,24.13H422.15ZM436.79,94c11.8,0,11.8-8.43,11.8-11.8,0-7.37-4.11-10.43-13.91-10.43H422.15V94Z" transform="translate(-38.32 -30.31)"/><path class="cls-2" d="M461.84,78.3H476V88h.21c3.06-5.69,6.43-11.17,15.38-11.17a25.81,25.81,0,0,1,2.84.21V92a27.51,27.51,0,0,0-4.21-.21c-11.49,0-13.59,7.17-13.59,13.38v29.19H461.84Z" transform="translate(-38.32 -30.31)"/><path class="cls-2" d="M538.54,123.39c0,6.64,1.47,8.11,3.27,8.75v2.21H525.9a24.69,24.69,0,0,1-1.37-6.64c-3.37,3.48-8.11,8.11-18.12,8.11-8.43,0-17.07-4.74-17.07-16.33,0-11,7-16.54,16.33-17.91l13.28-2c2.32-.32,5.16-1.26,5.16-4.43,0-6.22-5.9-6.53-9.69-6.53-7.38,0-8.64,4.53-9.06,7.8H491.13c1.69-17.17,13.59-19.6,25.08-19.6,7.9,0,22.34,2.42,22.34,16.23Zm-14.43-16.33c-1.48,1.16-3.9,2.11-10,3.06-5.48.95-10,2.32-10,8.43,0,5.16,4,6.74,6.85,6.74,6.53,0,13.17-4.21,13.17-11.06Z" transform="translate(-38.32 -30.31)"/><path class="cls-2" d="M589.84,113.91c-.53,5.79-5.06,21.92-25.6,21.92-21.07,0-25.92-16.12-25.92-27.92,0-18.12,7.9-31.08,26.87-31.08,8.85,0,23.39,4,24.76,21.49H575c-.63-3.58-2.74-9.06-9.06-9.06h-.74c-9.27,0-11.69,9.27-11.69,16.23,0,6.11.21,18.23,11.38,18.23,7.48,0,10-7.16,10-9.8Z" transform="translate(-38.32 -30.31)"/><path class="cls-2" d="M607.38,78.3h9.17V88.83h-9.17v30.45c0,3.27.11,4.53,6.11,4.53.95,0,2-.11,3.06-.21v11.17c-2.32.11-4.64.21-7,.21h-1.9c-12.75,0-15.07-4.85-15.07-12.12v-34H585V78.3h7.59V63.13h14.75Z" transform="translate(-38.32 -30.31)"/><path class="cls-2" d="M633,71.66H618.26V58H633Zm0,6.64v56.05H618.26V78.3Z" transform="translate(-38.32 -30.31)"/><path class="cls-2" d="M686.83,113.91c-.53,5.79-5.06,21.92-25.6,21.92-21.07,0-25.92-16.12-25.92-27.92,0-18.12,7.9-31.08,26.87-31.08,8.85,0,23.39,4,24.76,21.49H672c-.63-3.58-2.74-9.06-9.06-9.06h-.74c-9.27,0-11.69,9.27-11.69,16.23,0,6.11.21,18.23,11.38,18.23,7.48,0,10-7.16,10-9.8Z" transform="translate(-38.32 -30.31)"/><path class="cls-2" d="M737.55,117.91c-3.9,13.49-15.07,17.91-24.66,17.91-15.8,0-27.92-7.59-27.92-30.66,0-6.74,2.32-28.34,26.87-28.34,11.06,0,26.34,5.27,26.34,30.87v2.63H699.73c.42,4.21,1.26,13.7,13.17,13.7,4.11,0,8.32-2.11,9.48-6.11ZM723,100.74c-.84-9.06-6.64-11.8-11.38-11.8-7,0-10.64,4.43-11.48,11.8Z" transform="translate(-38.32 -30.31)"/><polygon class="cls-1" points="114.36 114.36 41.32 114.36 24.2 114.36 24.2 97.24 24.2 24.2 0 0 0 121.44 0 135.17 0 138.56 3.39 138.56 17.11 138.56 138.56 138.56 114.36 114.36"/><polygon class="cls-2" points="81.96 70.85 112.77 101.67 127.21 101.67 127.21 87.22 96.4 56.41 81.96 70.85"/><polygon class="cls-2" points="81.96 41.97 51.14 11.15 36.7 11.15 36.7 25.59 67.52 56.41 81.96 41.97"/><polygon class="cls-2" points="67.52 56.41 36.7 87.22 36.7 101.67 51.14 101.67 81.96 70.85 67.52 56.41"/><polygon class="cls-2" points="96.4 56.41 127.21 25.59 127.21 11.15 112.77 11.15 81.96 41.97 96.4 56.41"/></svg>