<svg id="Layer_1" data-name="Layer 1" xmlns="http://www.w3.org/2000/svg" viewBox="0 0 756.59 89.66"><defs><style>.cls-1{fill:#00a651;}.cls-2{fill:#ed1c24;}.cls-3{fill:#fff;}</style></defs><title>logo-econpractice</title><path class="cls-1" d="M76.21,59.18l26-26v-5h-5l-26,26A9.65,9.65,0,0,1,76.21,59.18Z" transform="translate(-16.41 -26.92)"/><path class="cls-1" d="M58.58,66.87l-26,26v5h5l26-26A9.65,9.65,0,0,1,58.58,66.87Z" transform="translate(-16.41 -26.92)"/><path class="cls-2" d="M63.55,54.21l-26-26h-5v5l26,26A9.65,9.65,0,0,1,63.55,54.21Z" transform="translate(-16.41 -26.92)"/><path class="cls-2" d="M71.24,71.84l26,26h5v-5l-26-26A9.65,9.65,0,0,1,71.24,71.84Z" transform="translate(-16.41 -26.92)"/><polygon class="cls-3" points="8.82 79.04 8.82 0 0 0 0 87.86 87.41 87.86 87.41 79.04 8.82 79.04"/><path class="cls-3" d="M192.43,110.4v4.69H132.54V26.92h59.28v4.69H138V66.93H188.6v4.69H138V110.4Z" transform="translate(-16.41 -26.92)"/><path class="cls-3" d="M242.69,71.26c-.86-11.24-10-17-21.49-17-15.93,0-24.45,14.08-24.45,28.53,0,17.17,8,29.76,24.45,29.76,11.86,0,20.5-8.15,22.11-19.76H248c-2.1,15.19-13.09,23.83-26.8,23.83-20.62,0-29.14-16.18-29.14-33.84s10.37-32.6,29.14-32.6c13.71,0,24.82,6.67,26.18,21.12Z" transform="translate(-16.41 -26.92)"/><path class="cls-3" d="M279.25,50.14c18.65,0,29.14,15.19,29.14,33.22s-10.5,33.22-29.14,33.22S250.1,101.39,250.1,83.36,260.6,50.14,279.25,50.14Zm0,62.36c15.93,0,24.45-14,24.45-29.14s-8.52-29.14-24.45-29.14-24.45,14-24.45,29.14S263.32,112.5,279.25,112.5Z" transform="translate(-16.41 -26.92)"/><path class="cls-3" d="M313.45,51.62h4.69V65.21h.25c3.21-9.51,12.84-15.07,22.72-15.07,22.35,0,22.6,17.91,22.6,25.69V115.1H359V75c0-6.55-.74-20.75-18-20.75-14.2,0-22.85,11-22.85,26.55V115.1h-4.69Z" transform="translate(-16.41 -26.92)"/><path class="cls-3" d="M374.34,26.92H413c17.54,0,27,9.76,27,26.06S430.52,79.16,413,79H386.07V115.1H374.34Zm11.73,42.23h23c13.21.12,19.26-5.68,19.26-16.18S422.25,36.8,409,36.8h-23Z" transform="translate(-16.41 -26.92)"/><path class="cls-3" d="M446.33,51.25h9.88V64.71h.25c5.06-10.25,12.1-15.31,23.46-14.94V60.88c-16.92,0-23.09,9.63-23.09,25.81v28.4h-10.5Z" transform="translate(-16.41 -26.92)"/><path class="cls-3" d="M538.46,114.85a14.16,14.16,0,0,1-7.53,1.73c-5.43,0-8.89-3-8.89-9.88-5.8,6.79-13.58,9.88-22.48,9.88-11.61,0-21.12-5.19-21.12-17.91,0-14.45,10.74-17.54,21.61-19.64,11.61-2.22,21.49-1.48,21.49-9.39,0-9.14-7.53-10.62-14.2-10.62-8.89,0-15.44,2.72-15.93,12.1h-10.5c.62-15.81,12.84-21.36,27-21.36,11.48,0,24,2.59,24,17.54v32.85c0,4.94,0,7.16,3.33,7.16a9,9,0,0,0,3.21-.62Zm-17-32.73c-4.08,3-12,3.09-19,4.32s-12.84,3.7-12.84,11.48c0,6.92,5.93,9.39,12.35,9.39,13.83,0,19.51-8.64,19.51-14.45Z" transform="translate(-16.41 -26.92)"/><path class="cls-3" d="M585.63,71.75C584,63.72,578.47,59,569.82,59,554.63,59,549.94,71,549.94,84c0,11.73,5.31,23.34,18.65,23.34,10.13,0,16.18-5.93,17.54-15.56h10.74c-2.35,15.56-12.1,24.82-28.16,24.82-19.51,0-29.89-13.58-29.89-32.6S548.71,49.77,569,49.77c14.45,0,26.06,6.79,27.54,22Z" transform="translate(-16.41 -26.92)"/><path class="cls-3" d="M617.24,51.25H630v9.26H617.24v39.64c0,4.82,1.36,5.68,7.9,5.68H630v9.26h-8c-10.87,0-15.19-2.22-15.19-14V60.51H595.88V51.25h10.87V32.11h10.5Z" transform="translate(-16.41 -26.92)"/><path class="cls-3" d="M646.76,39.77h-10.5V26.92h10.5Zm-10.5,11.48h10.5V115.1h-10.5Z" transform="translate(-16.41 -26.92)"/><path class="cls-3" d="M700.47,71.75c-1.61-8-7.16-12.72-15.81-12.72C669.48,59,664.78,71,664.78,84c0,11.73,5.31,23.34,18.65,23.34,10.13,0,16.18-5.93,17.54-15.56h10.74c-2.35,15.56-12.1,24.82-28.16,24.82C664,116.58,653.67,103,653.67,84s9.88-34.21,30.13-34.21c14.45,0,26.06,6.79,27.54,22Z" transform="translate(-16.41 -26.92)"/><path class="cls-3" d="M772,94.84c-2.84,14.08-13,21.73-27.29,21.73-20.38,0-30-14.08-30.63-33.59,0-19.14,12.6-33.22,30-33.22,22.6,0,29.51,21.12,28.9,36.55H725.17c-.37,11.11,5.93,21,19.88,21,8.64,0,14.7-4.2,16.55-12.47ZM761.85,77.06c-.49-10-8-18-18.4-18-11,0-17.54,8.27-18.28,18Z" transform="translate(-16.41 -26.92)"/></svg>